<?xml version="1.0" encoding="utf-8"?>
<!-- Generator: Adobe Illustrator 22.1.0, SVG Export Plug-In . SVG Version: 6.00 Build 0)  -->
<svg version="1.1" xmlns="http://www.w3.org/2000/svg" xmlns:xlink="http://www.w3.org/1999/xlink" x="0px" y="0px"
	 viewBox="0 0 512 512" style="enable-background:new 0 0 512 512;" xml:space="preserve">
<style type="text/css">
	.st0{display:none;}
	.st1{display:inline;}
	.st2{fill:#009588;}
	.st3{display:inline;fill:#009588;}
	.st4{fill:none;stroke:#009588;stroke-width:20;stroke-miterlimit:10;}
	.st5{fill:#FFFFFF;}
</style>
<g id="backup" class="st0">
	<g class="st1">
		<g>
			<path class="st2" d="M436,255l-15-30v-30l-30-30v-15l-30-15l-15-15l-60-15h-45l-30,15h-30l-30,30l-45,30l-15,30v30l-15,30l15,45
				l30,30l30-15h30l15,15h30v30l-30,15v15h105v-15l-30-15v-30l45-15h15l30,15l30-15h30l15-30V255z M331,165h-45v105
				c0,25.5-19.5,45-45,45s-45-19.5-45-45s21-45,45-45c4.5,0,10.5,1.5,15,3v-93h75V165z"/>
		</g>
	</g>
</g>
<g id="圖層_2" class="st0">
	<path class="st3" d="M871.6,336.9l2-10.5l1.5-8l-4.5-5l-2.5-6l-2.3-5.9l-3.2-2.1l-4.5-9v-8l-7.5-2.5l-6.5,2.5h-5v-9l-3-0.5l3.5-5
		l1.7-2.7l-3.7-7.3l-10-10.5l-2.8-6.4l-5-0.1l-5.2-5.4h-4.5l-2-7l1.5-2l-4.5-4l-0.5-6.5l-11.5-6l-6,1.5l-5-7h-5.5l-3,3.5l-5-6.5
		l-10.5-8.5l-12.5,1l-9.5,2l-6-5l-16,9.5l-15,1l-8,6l-13,1.5l-12.5,5.5l-1.5,7.5l-11,5h-3l-5,8l-11,5.5l-4,8.5l-7,5v0.5l-8.5,12
		l-2.5,3h0.5l2,4.5l-4.5,5.5l-2,10l2,1L609,294l-2,5.5l0.5,6l-0.5,5l2.5,5l-5.5,7l-7.5,4v0.5l-1.5,8.3l3,1.6l24.5-0.5l12,2.5l14,1.5
		l20.5-1l10.5-4l7,2l12,2.5l12,2.5l10,1l5-1.1c0.5,0.9,0.8,2,0.9,3c0.6,7-9.5,13.8-23.3,16.1h63.8v0c-13.7-0.2-24.4-5.3-25-12.4
		c-0.2-2.4,0.8-4.7,2.6-6.9l4.9,4.4l14-8l8.5,1h18l11.5-4.5l11.5,0.5l5.5,5l10.5,1l12-2.5l4,3.5l4-3.5l1.5-4l8.5-0.5l7.5,4
		L871.6,336.9z"/>
</g>
<g id="圖層_1">
	<circle class="st4" cx="256" cy="256" r="215"/>
	<title>工作區域 1</title>
	<path class="st2" d="M434.3,251.5L423.5,230c-1.7-3.3-2.5-7-2.5-10.7V202c0-4.5-1.8-8.8-5-12l-20.2-20.2c-3.1-3.1-4.8-7.2-4.8-11.6
		c0-5-2.8-9.6-7.4-11.9l-20-10c-1.8-0.9-3.4-2-4.7-3.4l-9.3-9.3c-1.9-1.2-4.8-3-8.5-4.8c-10.8-5.5-22.6-9.1-47.2-12.3
		c-20.9-2.7-31.3-4.1-35.9-3.1c-3.6,0.8-4.9,1.2-7.8,2c-4.4,1.1-8.4,1.9-9.8,2.2c-10,1.9-14.7-1.5-22.8-0.8
		c-4.7,0.4-11.1,2.3-18.6,8.7c-4.4,1.9-8.9,3.8-13.3,5.7c-6.1,2.6-13.2,2.2-19.4,4.8c-6.7,2.8-9.4,8-13.2,13.7
		c-1.8,2.8-4.7,6.5-9,10.2c-4.1,3.4-8,5.5-11,6.8c-6.9,6.3-13.8,12.7-20.7,19c-4.1,2.8-7.5,6.6-9.7,11l-9.7,19.4
		c-1.3,2.5-1.9,5.3-1.9,8.2v18.2c0,5-1.2,9.8-3.4,14.3l-8.3,16.5c-2.2,4.3-2.5,9.3-1,13.9l10.2,30.5c1.6,4.8,4.3,9.3,8,12.9
		l15.2,15.2c5.6,5.6,14,6.9,21.1,3.4l14.4-7.2c2.5-1.3,5.3-1.9,8.2-1.9h14.2c7.4,0,14.5,2.9,19.7,8.2l0.6,0.6c4,4,9.5,6.3,15.2,6.3
		H219c7,0,12.6,5.7,12.6,12.6V378c0,7.9-6,14.6-13.9,15.4l-21.8,2.2v9.3h105v-9.3l-20.1-2.2c-7.9-0.8-13.8-7.5-13.8-15.4v-23.3
		c0-5.8,3.8-10.9,9.3-12.6l37.7-11.5c1.3-0.4,2.6-0.6,4-0.6h10c1.9,0,3.8,0.5,5.6,1.3l14.4,7.2c8.2,4.1,17.8,4.1,25.9,0l12.8-6.4
		c2.8-1.4,5.8-2.1,8.9-2.1h13.6c7.1,0,13.7-4,16.9-10.4l7.1-14.2c1.8-3.5,2.7-7.4,2.7-11.3v-35.2C435.4,256.4,434.8,254,434.3,251.5
		z"/>
	<path class="st5" d="M331,171.8h-45v105c0,25.5-19.5,45-45,45s-45-19.5-45-45s21-45,45-45c4.5,0,10.5,1.5,15,3v-93h75V171.8z"/>
</g>
</svg>
